<svg xmlns="http://www.w3.org/2000/svg" x="0px" y="0px"
width="64" height="64"
viewBox="0 0 172 172"
style=" fill:#000000;"><g fill="none" fill-rule="nonzero" stroke="none" stroke-width="1" stroke-linecap="butt" stroke-linejoin="miter" stroke-miterlimit="10" stroke-dasharray="" stroke-dashoffset="0" font-family="none" font-weight="none" font-size="none" text-anchor="none" style="mix-blend-mode: normal"><path d="M0,172v-172h172v172z" fill="none"></path><g fill="#6c6d44"><path d="M86,10.75c-14.81274,0 -26.875,12.06226 -26.875,26.875c0,1.85815 0.18897,3.65332 0.5354,5.375h-19.24292c-3.65332,0 -6.84473,2.47754 -7.78955,6.01538l-26.74902,102.125c-0.64038,2.44605 -0.12598,4.97608 1.42773,6.96021c1.53272,1.99463 3.84229,3.14941 6.37232,3.14941h144.64209c2.53003,0 4.8396,-1.15478 6.37232,-3.14941c1.55371,-1.98413 2.06811,-4.51416 1.42773,-6.96021l-26.74902,-102.125c-0.94482,-3.53784 -4.13623,-6.01538 -7.78955,-6.01538h-19.24292c0.34644,-1.72168 0.5354,-3.51685 0.5354,-5.375c0,-14.81274 -12.06226,-26.875 -26.875,-26.875zM86,16.125c11.85229,0 21.5,9.64771 21.5,21.5c0,1.85815 -0.24146,3.65332 -0.67187,5.375h-5.63745c0.60889,-1.69018 0.93433,-3.49585 0.93433,-5.375c0,-8.89185 -7.23315,-16.125 -16.125,-16.125c-8.89185,0 -16.125,7.23315 -16.125,16.125c0,1.87915 0.32544,3.68482 0.93433,5.375h-5.63745c-0.43042,-1.72168 -0.67187,-3.51685 -0.67187,-5.375c0,-11.85229 9.64771,-21.5 21.5,-21.5zM86,26.875c5.9419,0 10.75,4.80811 10.75,10.75c0,1.96314 -0.5354,3.78979 -1.44873,5.375h-18.60254c-0.91333,-1.58521 -1.44873,-3.41186 -1.44873,-5.375c0,-5.94189 4.80811,-10.75 10.75,-10.75zM40.42798,48.375h91.15454c1.20727,0 2.27808,0.82935 2.58252,2.01563l23.68359,90.37768c-0.37793,0.46191 -0.62988,1.02881 -0.62988,1.66919v5.375c0,1.48022 1.20728,2.6875 2.6875,2.6875c0.16797,0 0.30444,-0.06299 0.46191,-0.09448l0.5564,2.11011c0.22046,0.80835 0.03149,1.6377 -0.48291,2.30957c-0.5144,0.67188 -1.29126,1.0498 -2.12061,1.0498h-144.64209c-0.82935,0 -1.6062,-0.37793 -2.12061,-1.0498c-0.5144,-0.67187 -0.70337,-1.50122 -0.49341,-2.30957l0.56689,-2.11011c0.15747,0.03149 0.29395,0.09448 0.46191,0.09448c1.48022,0 2.6875,-1.20728 2.6875,-2.6875v-5.375c0,-0.64038 -0.25195,-1.20728 -0.62988,-1.66919l23.68359,-90.37768c0.30444,-1.18628 1.37524,-2.01562 2.59302,-2.01562zM83.3125,53.75c-1.48022,0 -2.6875,1.20728 -2.6875,2.6875v8.0625h-2.6875c-7.41162,0 -13.4375,6.02588 -13.4375,13.4375v5.375c0,7.41162 6.02588,13.4375 13.4375,13.4375h10.75c4.44067,0 8.0625,3.62183 8.0625,8.0625v5.375c0,4.44067 -3.62183,8.0625 -8.0625,8.0625h-2.6875v-16.125c0,-1.48022 -1.20728,-2.6875 -2.6875,-2.6875c-1.48022,0 -2.6875,1.20728 -2.6875,2.6875v16.125h-2.6875c-4.44067,0 -8.0625,-3.62183 -8.0625,-8.0625c0,-1.48022 -1.20728,-2.6875 -2.6875,-2.6875c-1.48022,0 -2.6875,1.20728 -2.6875,2.6875c0,7.41162 6.02588,13.4375 13.4375,13.4375h2.6875v8.0625c0,1.48022 1.20728,2.6875 2.6875,2.6875c1.48022,0 2.6875,-1.20728 2.6875,-2.6875v-8.0625h2.6875c7.41162,0 13.4375,-6.02588 13.4375,-13.4375v-5.375c0,-7.41162 -6.02588,-13.4375 -13.4375,-13.4375h-2.6875v-16.125c0,-1.48022 -1.20728,-2.6875 -2.6875,-2.6875c-1.48022,0 -2.6875,1.20728 -2.6875,2.6875v16.125h-2.6875c-4.44067,0 -8.0625,-3.62183 -8.0625,-8.0625v-5.375c0,-4.44067 3.62183,-8.0625 8.0625,-8.0625h10.75c4.44067,0 8.0625,3.62183 8.0625,8.0625c0,1.48022 1.20728,2.6875 2.6875,2.6875c1.48022,0 2.6875,-1.20728 2.6875,-2.6875c0,-7.41162 -6.02588,-13.4375 -13.4375,-13.4375h-2.6875v-8.0625c0,-1.48022 -1.20728,-2.6875 -2.6875,-2.6875zM25.53125,139.75c-1.48022,0 -2.6875,1.20728 -2.6875,2.6875v5.375c0,1.48022 1.20728,2.6875 2.6875,2.6875c1.48022,0 2.6875,-1.20728 2.6875,-2.6875v-5.375c0,-1.48022 -1.20728,-2.6875 -2.6875,-2.6875zM38.96875,139.75c-1.48022,0 -2.6875,1.20728 -2.6875,2.6875v5.375c0,1.48022 1.20728,2.6875 2.6875,2.6875c1.48022,0 2.6875,-1.20728 2.6875,-2.6875v-5.375c0,-1.48022 -1.20728,-2.6875 -2.6875,-2.6875zM52.40625,139.75c-1.48022,0 -2.6875,1.20728 -2.6875,2.6875v5.375c0,1.48022 1.20728,2.6875 2.6875,2.6875c1.48022,0 2.6875,-1.20728 2.6875,-2.6875v-5.375c0,-1.48022 -1.20728,-2.6875 -2.6875,-2.6875zM65.84375,139.75c-1.48022,0 -2.6875,1.20728 -2.6875,2.6875v5.375c0,1.48022 1.20728,2.6875 2.6875,2.6875c1.48022,0 2.6875,-1.20728 2.6875,-2.6875v-5.375c0,-1.48022 -1.20728,-2.6875 -2.6875,-2.6875zM79.28125,139.75c-1.48022,0 -2.6875,1.20728 -2.6875,2.6875v5.375c0,1.48022 1.20728,2.6875 2.6875,2.6875c1.48022,0 2.6875,-1.20728 2.6875,-2.6875v-5.375c0,-1.48022 -1.20728,-2.6875 -2.6875,-2.6875zM92.71875,139.75c-1.48022,0 -2.6875,1.20728 -2.6875,2.6875v5.375c0,1.48022 1.20728,2.6875 2.6875,2.6875c1.48022,0 2.6875,-1.20728 2.6875,-2.6875v-5.375c0,-1.48022 -1.20728,-2.6875 -2.6875,-2.6875zM106.15625,139.75c-1.48022,0 -2.6875,1.20728 -2.6875,2.6875v5.375c0,1.48022 1.20728,2.6875 2.6875,2.6875c1.48022,0 2.6875,-1.20728 2.6875,-2.6875v-5.375c0,-1.48022 -1.20728,-2.6875 -2.6875,-2.6875zM119.59375,139.75c-1.48022,0 -2.6875,1.20728 -2.6875,2.6875v5.375c0,1.48022 1.20728,2.6875 2.6875,2.6875c1.48022,0 2.6875,-1.20728 2.6875,-2.6875v-5.375c0,-1.48022 -1.20728,-2.6875 -2.6875,-2.6875zM133.03125,139.75c-1.48022,0 -2.6875,1.20728 -2.6875,2.6875v5.375c0,1.48022 1.20728,2.6875 2.6875,2.6875c1.48022,0 2.6875,-1.20728 2.6875,-2.6875v-5.375c0,-1.48022 -1.20728,-2.6875 -2.6875,-2.6875zM146.46875,139.75c-1.48022,0 -2.6875,1.20728 -2.6875,2.6875v5.375c0,1.48022 1.20728,2.6875 2.6875,2.6875c1.48022,0 2.6875,-1.20728 2.6875,-2.6875v-5.375c0,-1.48022 -1.20728,-2.6875 -2.6875,-2.6875z"></path></g></g></svg>